# xmcd CD database file
#
# Track frame offsets:
#	150
#	41850
#	60192
#	76187
#	96437
#	110842
#	126262
#	145745
#	166920
#	184190
#	199490
#
# Disc length: 2900 seconds
#
# Revision: 0
# Processed by: cddbd v1.5.1PL0 Copyright (c) Steve Scherf et al.
# Submitted via: CDex 1.51
#
DISCID=9c0b520b
DTITLE=Patrick Mimran - Roma
DYEAR=1996
DGENRE=New Age
TTITLE0=Roma
TTITLE1=October Tenth
TTITLE2=June Twenty-third
TTITLE3=December Fifth
TTITLE4=September Twenties
TTITLE5=August Fourth
TTITLE6=April First
TTITLE7=March Twenty-senventh
TTITLE8=November Eleventh
TTITLE9=January Eleventh
TTITLE10=Mai Eigthth
EXTD=YEAR: 1996
EXTT0=
EXTT1=
EXTT2=
EXTT3=
EXTT4=
EXTT5=
EXTT6=
EXTT7=
EXTT8=
EXTT9=
EXTT10=
PLAYORDER=
